HIERARCHY
ROOT Hips
{
	OFFSET 0.00000 0.00000 0.00000
	CHANNELS 6 Xposition Yposition Zposition Yrotation Zrotation Xrotation 
	JOINT Lumbar
	{
		OFFSET 0 0 0
		CHANNELS 3 Zrotation Xrotation Yrotation
		JOINT Neck
		{
			OFFSET 0.00 0.2701 0.00
			CHANNELS 3 Zrotation Xrotation Yrotation
			End Site
			{
				OFFSET 0.00 0.1379 0.00
			}
		}
		JOINT RightShoulder
		{
			OFFSET 0.0119 0.2289 0.1181
			CHANNELS 3 Zrotation Xrotation Yrotation
			JOINT RightElbow
			{
				OFFSET 0.00 -0.1475 0.00
				CHANNELS 2 Zrotation Yrotation
				JOINT RightWrist
				{
					OFFSET 0.00 -0.1605 0.00
					CHANNELS 2 Zrotation Xrotation
					End Site
					{
						OFFSET 0.0040 -0.1068 0.0006
					}
				}
			}
		}
		JOINT LeftShoulder
		{
			OFFSET 0.0119 0.2289 -0.1181
			CHANNELS 3 Zrotation Xrotation Yrotation
			JOINT LeftElbow
			{
				OFFSET 0.00 -0.1475 0.00
				CHANNELS 2 Zrotation Yrotation
				JOINT LeftWrist
				{
					OFFSET 0.00 -0.1605 0.00
					CHANNELS 2 Zrotation Xrotation
					End Site
					{
						OFFSET 0.0040 -0.1068 -0.0006
					}
				}
			}
		}
	}
	JOINT RightHip
	{
		OFFSET 0.0316 -0.0424 0.0458
		CHANNELS 3 Zrotation Xrotation Yrotation
		JOINT RightKnee
		{
			OFFSET 0.00 -0.2438 0.00
			CHANNELS 1 Zrotation
			JOINT RightAnkle
			{
				OFFSET 0.00 -0.2449 0.00
				CHANNELS 3 Zrotation Xrotation Yrotation
				End Site
				{
					OFFSET 0.1237 -0.0542 0.0051
				}
			}
		}
	}
	JOINT LeftHip
	{
		OFFSET 0.0316 -0.0424 -0.0458
		CHANNELS 3 Zrotation Xrotation Yrotation
		JOINT LeftKnee
		{
			OFFSET 0.00 -0.2438 0.00
			CHANNELS 1 Zrotation
			JOINT LeftAnkle
			{
				OFFSET 0.00 -0.2449 0.00
				CHANNELS 3 Zrotation Xrotation Yrotation
				End Site
				{
					OFFSET 0.1237 -0.0542 -0.0051
				}
			}
		}
	}
}
MOTION
Frames: 28
Frame Time: 0.02
-0.0003 0 3e-05 -536.9848 -36.82588 -2.92292 46.41683 2.84248 -3.77397 -16.49687 -2.04099 -1.09511 36.17252 -106.39214 55.63068 8.43938 85.4422 9.83113 -1.95258 9.36704 106.86902 -55.62457 7.89801 -91.26129 5.01093 4.09391 39.93608 -5.41699 -10.23289 -21.36563 -6.78736 -2.0117 -3.23475 45.63515 10.62394 3.60099 -26.82639 -7.12049 1.5794 3.03176
-0.00027 -0 3e-05 -537.05527 -37.06339 -2.94153 46.65292 2.85791 -3.7202 -16.48687 -2.03223 -1.09656 36.16037 -106.41845 55.63103 8.43484 85.44968 9.76446 -1.92912 9.4252 106.90725 -55.62462 7.90907 -91.26279 5.0017 4.05 40.23305 -5.39527 -10.10113 -21.39592 -6.79053 -2.02252 -3.23961 45.90161 10.6357 3.63594 -26.84461 -7.12281 1.5787 3.03194
-0.00024 -1e-05 4e-05 -537.12554 -37.30005 -2.96014 46.88814 2.87333 -3.6666 -16.47691 -2.02349 -1.09801 36.14849 -106.44475 55.63137 8.43052 85.45715 9.69784 -1.90576 9.4833 106.94538 -55.62463 7.92011 -91.26429 4.99242 4.00619 40.52897 -5.37363 -9.97007 -21.42607 -6.7937 -2.03328 -3.24444 46.16719 10.64741 3.67054 -26.86281 -7.12511 1.57802 3.03214
-0.00021 -1e-05 5e-05 -537.19581 -37.5368 -2.9787 47.12347 2.88872 -3.61299 -16.46694 -2.01476 -1.09945 36.13638 -106.47098 55.63171 8.42599 85.46459 9.63137 -1.88237 9.54128 106.98351 -55.62473 7.93112 -91.2658 4.98322 3.96241 40.82499 -5.35198 -9.83879 -21.45626 -6.79686 -2.04407 -3.24928 46.43281 10.65914 3.70532 -26.88098 -7.12741 1.57733 3.03232
-0.00018 -2e-05 5e-05 -537.26623 -37.77445 -2.99722 47.35973 2.90408 -3.55923 -16.45693 -2.006 -1.1009 36.12402 -106.49721 55.63205 8.42129 85.4721 9.56482 -1.85888 9.59933 107.02172 -55.62475 7.94216 -91.26729 4.97405 3.91851 41.12214 -5.33026 -9.70663 -21.48662 -6.80003 -2.05492 -3.25415 46.69937 10.6709 3.74059 -26.89914 -7.12973 1.5766 3.03249
-0.00015 -2e-05 6e-05 -537.33618 -38.00905 -3.01601 47.59278 2.91963 -3.50597 -16.44706 -1.99732 -1.10234 36.11321 -106.52365 55.63239 8.41782 85.47949 9.49801 -1.83583 9.65758 107.05968 -55.62467 7.95322 -91.26881 4.96452 3.87488 41.41548 -5.30877 -9.57787 -21.51634 -6.80319 -2.06551 -3.25889 46.96287 10.68251 3.77379 -26.91741 -7.13199 1.57605 3.03273
-0.00012 -2e-05 7e-05 -537.40706 -38.24945 -3.03428 47.83198 2.93482 -3.45174 -16.43691 -1.98848 -1.10379 36.09902 -106.5496 55.63275 8.41159 85.487 9.43201 -1.81187 9.71518 107.09813 -55.62515 7.96418 -91.2703 4.95585 3.8308 41.71604 -5.28683 -9.44258 -21.54728 -6.80637 -2.07659 -3.2639 47.23216 10.69442 3.81098 -26.93547 -7.13435 1.57515 3.03283
-9e-05 -3e-05 7e-05 -537.47701 -38.48464 -3.05295 48.06561 2.95027 -3.39842 -16.42704 -1.97979 -1.10524 36.08842 -106.57609 55.63305 8.40842 85.4946 9.36487 -1.78882 9.7737 107.13606 -55.62445 7.97532 -91.27178 4.94617 3.78706 42.01016 -5.26534 -9.31301 -21.57716 -6.80953 -2.08725 -3.26867 47.49627 10.70603 3.84476 -26.9537 -7.13663 1.57454 3.03304
-6e-05 -3e-05 8e-05 -537.54613 -38.71298 -3.07244 48.29206 2.96634 -3.34614 -16.41743 -1.97126 -1.10667 36.08039 -106.60291 55.63345 8.40701 85.50153 9.29786 -1.76659 9.83212 107.17365 -55.62496 7.98633 -91.27338 4.93609 3.74401 42.29567 -5.24425 -9.19164 -21.60549 -6.81266 -2.09728 -3.2731 47.7535 10.71738 3.87328 -26.97223 -7.13878 1.57441 3.03346
-4e-05 -4e-05 9e-05 -537.62094 -38.9793 -3.08822 48.55871 2.97976 -3.28766 -16.40607 -1.96174 -1.10815 36.05213 -106.62686 55.63381 8.38949 85.50996 9.23466 -1.73877 9.88746 107.21409 -55.62644 7.99704 -91.2747 4.9308 3.69784 42.62851 -5.22041 -9.02669 -21.64195 -6.81593 -2.11061 -3.27932 48.04867 10.73054 3.92876 -26.9893 -7.14159 1.5719 3.03289
1e-05 -4e-05 0.0001 -537.68315 -39.16642 -3.11118 48.74129 2.99818 -3.24242 -16.39858 -1.95439 -1.10954 36.06999 -106.65744 55.6339 8.40977 85.51674 9.16055 -1.7233 9.95161 107.24794 -55.62083 8.00904 -91.27633 4.91382 3.6577 42.86288 -5.20266 -8.95137 -21.66178 -6.81892 -2.11717 -3.28187 48.26483 10.73969 3.92951 -27.00927 -7.14307 1.57416 3.03429
0.00014 -4e-05 0.00014 -537.71551 -39.12635 -3.15935 48.68461 3.03532 -3.23253 -16.40048 -1.95234 -1.11071 36.19132 -106.70133 55.63453 8.50559 85.50591 9.0802 -1.73676 10.02466 107.26772 -55.63098 8.02068 -91.28056 4.87808 3.63816 42.81301 -5.19938 -9.14399 -21.63116 -6.82115 -2.10342 -3.27329 48.25343 10.73937 3.76045 -27.03893 -7.1404 1.5918 3.04226
0.0003 -3e-05 0.0002 -537.73438 -39.0085 -3.21376 48.54502 3.07658 -3.23609 -16.40658 -1.95258 -1.11179 36.36591 -106.75251 55.63365 8.64595 85.49541 8.98489 -1.76305 10.1117 107.27973 -55.62336 8.03532 -91.28442 4.8286 3.62349 42.66675 -5.20262 -9.42274 -21.58467 -6.82311 -2.0832 -3.2612 48.1646 10.7347 3.53975 -27.07122 -7.13646 1.61384 3.05202
0.00044 -3e-05 0.00026 -537.75627 -38.93284 -3.2616 48.44911 3.11267 -3.23419 -16.41143 -1.95226 -1.1129 36.52784 -106.80387 55.63388 8.78259 85.49385 8.88042 -1.78735 10.19941 107.29321 -55.60613 8.0499 -91.2877 4.77608 3.60447 42.57395 -5.20434 -9.64752 -21.54865 -6.82519 -2.0671 -3.2514 48.1183 10.73106 3.35591 -27.10113 -7.13343 1.63232 3.06022
0.00058 -3e-05 0.0003 -537.79108 -38.82856 -3.32492 48.3281 3.16261 -3.22973 -16.41315 -1.95003 -1.11402 36.63021 -106.8416 55.6364 8.84398 85.45571 8.84163 -1.79751 10.24804 107.31704 -55.68048 8.05496 -91.29552 4.76074 3.59623 42.44074 -5.2 -9.93435 -21.49911 -6.82726 -2.04604 -3.23869 48.04117 10.73155 3.11673 -27.13591 -7.12905 1.65727 3.07152
0.00075 -2e-05 0.00038 -537.796 -38.76492 -3.35786 48.23921 3.1848 -3.2336 -16.42285 -1.95216 -1.11512 36.88295 -106.90805 55.62866 9.0797 85.49161 8.66457 -1.83757 10.39321 107.31536 -55.53861 8.08559 -91.29205 4.6672 3.56453 42.36818 -5.2098 -10.11325 -21.47366 -6.8293 -2.03371 -3.23117 48.0095 10.72222 2.97896 -27.16137 -7.12714 1.66995 3.07687
0.00101 0 0.00057 -537.71986 -38.83737 -3.30201 48.26388 3.12803 -3.25855 -16.44956 -1.96741 -1.11616 37.41955 -107.06338 55.64015 9.72528 85.75019 8.09186 -1.98026 10.70098 107.26328 -54.99484 8.14422 -91.2723 4.33943 3.48607 42.49274 -5.25729 -9.96517 -21.5214 -6.83118 -2.04776 -3.23927 48.12592 10.6885 3.14779 -27.15875 -7.13282 1.64621 3.06457
0.00132 3e-05 0.0008 -537.6144 -38.95252 -3.21598 48.32292 3.04339 -3.29111 -16.48487 -1.98669 -1.11719 38.12692 -107.24481 55.63489 10.55574 86.07935 7.3841 -2.14904 11.12462 107.18238 -54.20474 8.23704 -91.23829 3.9373 3.38091 42.68051 -5.31882 -9.7071 -21.59344 -6.83306 -2.07067 -3.25262 48.29007 10.64469 3.41788 -27.14698 -7.14096 1.61023 3.04638
0.00161 5e-05 0.00103 -537.52362 -39.04497 -3.14596 48.36318 2.97243 -3.3194 -16.51893 -2.00305 -1.11824 38.83468 -107.40735 55.6034 11.3417 86.36483 6.74926 -2.28965 11.5606 107.10279 -53.39429 8.34073 -91.20127 3.5837 3.27452 42.83543 -5.37367 -9.5043 -21.65253 -6.83503 -2.08906 -3.26327 48.43001 10.60447 3.63247 -27.14051 -7.14771 1.58081 3.03141
0.00188 7e-05 0.00121 -537.4268 -39.14863 -3.06651 48.41379 2.89754 -3.35189 -16.5421 -2.02403 -1.11919 39.21825 -107.60152 55.70517 11.9637 86.70136 6.06383 -2.49636 11.72089 107.07276 -53.11596 8.33003 -91.2049 3.16823 3.22197 43.00456 -5.42967 -9.28153 -21.7191 -6.83664 -2.10935 -3.27514 48.57794 10.5685 3.88524 -27.12929 -7.15556 1.54734 3.0142
0.0022 0.0001 0.00149 -537.33557 -39.24007 -2.99941 48.45221 2.82389 -3.3769 -16.58974 -2.03641 -1.12037 40.31283 -107.73379 55.5374 12.96884 86.94575 5.45354 -2.57546 12.48494 106.93268 -51.70339 8.56946 -91.11976 2.8631 3.05431 43.16018 -5.48692 -9.07397 -21.77607 -6.83899 -2.12783 -3.28574 48.72148 10.52109 4.08325 -27.12578 -7.1617 1.51933 3.00022
0.00262 0.00013 0.00201 -537.26888 -39.28797 -2.97414 48.44781 2.76293 -3.38218 -16.70459 -2.02329 -1.12221 43.35734 -107.70789 54.52433 15.00247 86.93904 5.07354 -2.2599 14.86748 106.49608 -46.94013 9.45855 -90.79854 2.88954 2.5462 43.26497 -5.54074 -8.9274 -21.80071 -6.84342 -2.13969 -3.29182 48.84232 10.44656 4.10515 -27.1458 -7.16274 1.50962 2.9968
0.00309 0.00016 0.00263 -537.20855 -39.32232 -2.96229 48.43042 2.70371 -3.37901 -16.84337 -2.00156 -1.1243 47.10082 -107.61595 53.25866 17.41274 86.83242 4.77833 -1.8209 17.85571 105.94945 -41.09544 10.604 -90.38707 3.02774 1.92882 43.3541 -5.59591 -8.80087 -21.81493 -6.84859 -2.14937 -3.29643 48.95726 10.36051 4.06879 -27.17391 -7.16194 1.50577 2.99678
0.00353 0.0002 0.00322 -537.14409 -39.36288 -2.94398 48.41997 2.64208 -3.37793 -16.97013 -1.98425 -1.12628 50.51189 -107.54073 52.17952 19.63927 86.75918 4.44787 -1.46283 20.58205 105.45339 -35.92967 11.65382 -90.01376 3.10949 1.38023 43.44965 -5.65269 -8.67008 -21.83391 -6.85337 -2.15972 -3.30155 49.07456 10.27841 4.05934 -27.19826 -7.16181 1.49908 2.99508
0.00399 0.00023 0.00376 -537.08377 -39.40482 -2.92598 48.40661 2.58634 -3.38485 -17.1023 -1.96483 -1.12821 54.01222 -107.51949 50.8033 21.92289 86.74289 4.08846 -1.00387 23.26284 104.95502 -29.96646 12.6178 -89.65355 3.21372 0.74894 43.55037 -5.70062 -8.51554 -21.85353 -6.85833 -2.17171 -3.30748 49.19487 10.20135 4.05125 -27.22255 -7.16245 1.49273 2.99379
0.00442 0.00026 0.00443 -537.01679 -39.43992 -2.91114 48.39542 2.51909 -3.37256 -17.22843 -1.94786 -1.13032 57.46411 -107.37363 49.97812 24.17775 86.57869 3.82425 -0.72157 26.17226 104.43432 -25.40738 13.81963 -89.24288 3.29714 0.26557 43.63569 -5.76707 -8.41603 -21.86914 -6.86314 -2.17969 -3.31133 49.30683 10.11124 4.02555 -27.24913 -7.16104 1.4872 2.99249
0.00475 0.00026 0.00539 -536.92923 -39.46114 -2.89986 48.39651 2.41983 -3.31275 -17.33487 -1.93823 -1.1329 60.82542 -106.86752 50.80411 26.23672 86.0634 3.66987 -0.99003 29.63449 103.89336 -25.02397 15.6325 -88.73209 3.30589 0.20554 43.68291 -5.88485 -8.46926 -21.87532 -6.867 -2.17671 -3.30951 49.39758 9.98745 3.96171 -27.27897 -7.15428 1.4829 2.99051
0.00505 0.00026 0.00648 -536.83499 -39.47543 -2.89183 48.39943 2.309 -3.23307 -17.43373 -1.93158 -1.13565 64.0661 -106.24488 52.18009 28.25959 85.39193 3.61858 -1.43415 33.28985 103.333 -26.08863 17.67594 -88.17097 3.28623 0.29951 43.71477 -6.02105 -8.57666 -21.87792 -6.87076 -2.16981 -3.30566 49.47985 9.85104 3.88219 -27.31109 -7.14554 1.47924 2.98838
